<svg width="43" height="93" viewBox="0 0 43 93" fill="none" xmlns="http://www.w3.org/2000/svg">
<path d="M42.3997 33.7114C42.3997 37.8532 42.4219 41.9968 42.3962 46.1386C42.3294 56.4698 35.4206 64.914 25.4045 66.9409C13.9058 69.2699 2.39003 60.988 0.840652 49.2721C0.746387 48.5608 0.653835 47.8409 0.652121 47.1261C0.641838 38.1226 0.497869 29.1156 0.688113 20.1155C0.909208 9.65304 9.42736 0.801415 19.6509 0.0590317C30.5171 -0.729966 40.0413 6.4677 41.9935 16.9992C42.2591 18.4322 42.3637 19.91 42.3808 21.3689C42.4322 25.4831 42.3997 29.5973 42.3997 33.7114ZM3.53321 33.5871C3.5435 33.5871 3.55378 33.5871 3.56406 33.5871C3.56406 38.1329 3.41838 42.6822 3.5932 47.2211C4.02682 58.5036 14.9993 66.6301 25.8604 63.828C33.9878 61.7304 39.4483 54.6346 39.4809 46.0436C39.5117 37.7876 39.4963 29.5317 39.4774 21.2757C39.4757 20.2156 39.3917 19.1469 39.2426 18.0972C37.9143 8.73456 28.6352 1.72335 19.3424 3.04065C10.0358 4.35795 3.55549 11.8526 3.53493 21.3326C3.52636 25.4175 3.53321 29.5023 3.53321 33.5871Z" fill="white"/>
<path d="M21.5174 89.6406C24.7515 87.0008 27.9668 84.3766 31.1821 81.7541C32.1573 80.9582 33.1274 80.1519 34.1129 79.3698C34.9082 78.7379 35.7651 78.7932 36.3102 79.4751C36.8603 80.164 36.7335 81.0065 35.9365 81.6591C31.5043 85.2847 27.067 88.9017 22.6263 92.5169C21.8293 93.1661 21.1934 93.1678 20.3947 92.5169C15.9763 88.9207 11.5629 85.3192 7.15133 81.7126C6.28751 81.0065 6.14183 80.1916 6.71085 79.4769C7.26959 78.7759 8.13169 78.7448 8.97322 79.4285C12.8381 82.5724 16.6961 85.7232 20.5559 88.8706C20.8661 89.1209 21.1797 89.3696 21.5174 89.6406Z" fill="white"/>
<path d="M18.6397 19.1263C18.6397 18.0058 18.6277 16.887 18.6431 15.7666C18.6671 14.0073 19.8429 12.778 21.4917 12.7677C23.1422 12.7573 24.3625 13.9866 24.3779 15.7286C24.3967 17.9972 24.4002 20.2657 24.3762 22.5343C24.3573 24.2763 23.125 25.5125 21.4882 25.497C19.8497 25.4831 18.6688 24.2418 18.6448 22.486C18.6277 21.3672 18.6397 20.2468 18.6397 19.1263Z" fill="white"/>
</svg>
